<svg width="21568" height="13236" viewBox="0 0 21568 13236" fill="none" xmlns="http://www.w3.org/2000/svg">
<g clip-path="url(#clip0)">
<path d="M20406.3 10769.4C20313.2 10769.4 20223.9 10810 20140.6 10883.7C19914.2 10152.4 19563.6 9682.42 19169.8 9682.42C18776 9682.42 18425.4 10152.4 18199 10883.7C18115.7 10810 18026.4 10769.4 17933.3 10769.4C17485.9 10769.4 17123.1 11694.1 17123.1 12834.8H21216.4C21216.4 11694.1 20853.7 10769.4 20406.3 10769.4Z" fill="#D0CDE1"/>
<path d="M8296.99 9600.73C8200.71 9602.49 8107.6 9631.85 8031.3 9684.5C7804.85 9148.21 7454.3 8803.58 7060.47 8803.58C6666.64 8803.58 6316.09 9148.21 6089.64 9684.5C6013.34 9631.85 5920.23 9602.49 5823.95 9600.73C5376.53 9600.73 5013.82 10278.8 5013.82 11115.3H9107.12C9107.12 10278.8 8744.41 9600.73 8296.99 9600.73Z" fill="#D0CDE1"/>
<path d="M21568 13236H35.9766C55.3771 11668.2 4868.2 10398.9 10802 10398.9C16735.8 10398.9 21548.6 11668.2 21568 13236Z" fill="#3F3D56"/>
<g clip-path="url(#clip1)">
<path d="M593.736 11935.8C686.438 11935.8 761.587 11863.6 761.587 11774.6C761.587 11685.6 686.438 11613.5 593.736 11613.5C501.034 11613.5 425.885 11685.6 425.885 11774.6C425.885 11863.6 501.034 11935.8 593.736 11935.8Z" fill="#FF6584"/>
<path d="M1410.4 12379.2C1410.4 12759.4 1174.95 12892.1 884.508 12892.1C594.069 12892.1 358.621 12759.4 358.621 12379.2C358.621 11999 884.508 11515.3 884.508 11515.3C884.508 11515.3 1410.4 11999 1410.4 12379.2Z" fill="#F2F2F2"/>
<path d="M865.348 12834L870.735 12515.8L1094.88 12122.1L871.58 12465.9L874 12322.8L1028.48 12038L874.64 12284.9L878.994 12027.6L1044.42 11800.9L879.681 11987.2L882.401 11515.3L865.301 12139.9L866.707 12114.2L698.523 11867L864.011 12163.6L848.34 12451L847.873 12443.4L653.984 12183.3L847.286 12470.3L845.327 12506.3L844.975 12506.8L845.135 12509.8L805.378 13238.9H858.498L864.871 12862.3L1057.7 12576L865.348 12834Z" fill="#3F3D56"/>
<path d="M2975.13 12534.9C2975.13 12846.1 2782.4 12954.8 2544.66 12954.8C2306.92 12954.8 2114.2 12846.1 2114.2 12534.9C2114.2 12223.7 2544.66 11827.8 2544.66 11827.8C2544.66 11827.8 2975.13 12223.7 2975.13 12534.9Z" fill="#F2F2F2"/>
<path d="M2528.98 12907.2L2533.39 12646.7L2716.86 12324.5L2534.08 12605.9L2536.06 12488.7L2662.51 12255.6L2536.58 12457.8L2540.15 12247.1L2675.55 12061.5L2540.71 12214L2542.94 11827.8L2528.94 12339.1L2530.09 12318L2392.42 12115.7L2527.88 12358.5L2515.06 12593.7L2514.67 12587.5L2355.97 12374.6L2514.19 12609.5L2512.59 12638.9L2512.3 12639.4L2512.43 12641.8L2479.89 13238.6H2523.37L2528.59 12930.3L2686.42 12696L2528.98 12907.2Z" fill="#3F3D56"/>
<path d="M1490.69 13299.1C2294 13299.1 2945.21 13267.5 2945.21 13228.5C2945.21 13189.6 2294 13158 1490.69 13158C687.384 13158 36.1758 13189.6 36.1758 13228.5C36.1758 13267.5 687.384 13299.1 1490.69 13299.1Z" fill="#3F3D56"/>
<path d="M290.795 13139.9C405.223 13139.9 497.986 13050.8 497.986 12941C497.986 12831.1 405.223 12742.1 290.795 12742.1C176.366 12742.1 83.6035 12831.1 83.6035 12941C83.6035 13050.8 176.366 13139.9 290.795 13139.9Z" fill="#2F2E41"/>
<path d="M257.409 13096.7L194.469 13096L193.14 13204.3L256.08 13205L257.409 13096.7Z" fill="#2F2E41"/>
<path d="M383.287 13098.1L320.348 13097.4L319.019 13205.7L381.959 13206.4L383.287 13098.1Z" fill="#2F2E41"/>
<path d="M298.024 13206.7C298.152 13196.3 274.773 13187.6 245.806 13187.2C216.839 13186.9 193.252 13195.1 193.124 13205.5C192.996 13216 216.375 13224.7 245.342 13225C274.31 13225.3 297.896 13217.1 298.024 13206.7Z" fill="#2F2E41"/>
<path d="M423.936 13205.6C424.064 13195.2 400.685 13186.5 371.718 13186.1C342.751 13185.8 319.164 13194 319.036 13204.4C318.908 13214.9 342.287 13223.6 371.255 13223.9C400.222 13224.2 423.808 13216 423.936 13205.6Z" fill="#2F2E41"/>
<path d="M296.656 12958.7C335.764 12958.7 367.468 12928.2 367.468 12890.7C367.468 12853.2 335.764 12822.7 296.656 12822.7C257.547 12822.7 225.844 12853.2 225.844 12890.7C225.844 12928.2 257.547 12958.7 296.656 12958.7Z" fill="white"/>
<path d="M296.657 12913.4C309.693 12913.4 320.261 12903.2 320.261 12890.7C320.261 12878.2 309.693 12868 296.657 12868C283.621 12868 273.053 12878.2 273.053 12890.7C273.053 12903.2 283.621 12913.4 296.657 12913.4Z" fill="#3F3D56"/>
<path d="M92.0968 12753.8C76.251 12681.7 130.618 12609.6 213.528 12592.8C296.438 12576 376.496 12620.9 392.342 12693C408.188 12765.1 353.058 12791 270.148 12807.8C187.238 12824.6 107.943 12825.9 92.0968 12753.8Z" fill="#6C63FF"/>
<path d="M606.848 13052C606.848 13190.6 520.982 13239 415.052 13239C412.598 13239 410.148 13239 407.702 13239C402.794 13238.9 397.933 13238.6 393.13 13238.3C297.53 13231.8 223.256 13180.9 223.256 13052C223.256 12918.5 400.912 12750.1 414.257 12737.6L414.281 12737.6C414.795 12737.1 415.052 12736.9 415.052 12736.9C415.052 12736.9 606.848 12913.3 606.848 13052Z" fill="#6C63FF"/>
<path d="M408.065 13217.8L478.213 13123.7L407.889 13228.2L407.703 13239C402.795 13238.9 397.933 13238.6 393.131 13238.3L400.691 13099.6L400.633 13098.5L400.761 13098.3L401.474 13085.2L330.975 12980.5L401.696 13075.4L401.86 13078.2L407.574 12973.3L347.218 12865.2L408.31 12954.9L414.258 12737.6L414.281 12736.9V12737.6L413.288 12909L473.376 12841L413.043 12923.7L411.454 13017.6L467.556 12927.5L411.22 13031.4L410.332 13083.6L491.781 12958.2L410.028 13101.8L408.065 13217.8Z" fill="#3F3D56"/>
<path d="M1904.79 13137.7C2019.22 13137.7 2111.98 13048.7 2111.98 12938.8C2111.98 12829 2019.22 12739.9 1904.79 12739.9C1790.36 12739.9 1697.6 12829 1697.6 12938.8C1697.6 13048.7 1790.36 13137.7 1904.79 13137.7Z" fill="#2F2E41"/>
<path d="M1922.48 13096.9L1862.31 13114.7L1895.44 13218.2L1955.6 13200.4L1922.48 13096.9Z" fill="#2F2E41"/>
<path d="M2042.81 13061.4L1982.64 13079.2L2015.77 13182.7L2075.94 13164.9L2042.81 13061.4Z" fill="#2F2E41"/>
<path d="M1951.74 13222.6C1979.43 13214.5 1999.3 13199.7 1996.1 13189.8C1992.91 13179.8 1967.88 13178.4 1940.19 13186.5C1912.49 13194.7 1892.63 13209.4 1895.83 13219.4C1899.02 13229.3 1924.05 13230.8 1951.74 13222.6Z" fill="#2F2E41"/>
<path d="M2071.31 13184.7C2099 13176.5 2118.86 13161.8 2115.67 13151.9C2112.47 13141.9 2087.44 13140.4 2059.75 13148.6C2032.06 13156.8 2012.2 13171.5 2015.39 13181.5C2018.58 13191.4 2043.61 13192.9 2071.31 13184.7Z" fill="#2F2E41"/>
<path d="M1894.4 12957.2C1933.5 12957.2 1965.21 12926.8 1965.21 12889.2C1965.21 12851.7 1933.5 12821.3 1894.4 12821.3C1855.29 12821.3 1823.58 12851.7 1823.58 12889.2C1823.58 12926.8 1855.29 12957.2 1894.4 12957.2Z" fill="white"/>
<path d="M1894.4 12911.9C1907.43 12911.9 1918 12901.7 1918 12889.2C1918 12876.7 1907.43 12866.6 1894.4 12866.6C1881.36 12866.6 1870.79 12876.7 1870.79 12889.2C1870.79 12901.7 1881.36 12911.9 1894.4 12911.9Z" fill="#3F3D56"/>
<path d="M1656.07 12818.7C1618.07 12754.7 1646.95 12670.1 1720.58 12629.9C1794.2 12589.6 1884.69 12608.9 1922.69 12672.9C1960.69 12736.9 1916.42 12777.7 1842.8 12818C1769.17 12858.3 1694.07 12882.7 1656.07 12818.7Z" fill="#6C63FF"/>
<path d="M1535.28 13026.6C1535.28 13153.8 1456.46 13198.3 1359.22 13198.3C1356.96 13198.3 1354.71 13198.3 1352.47 13198.2C1347.96 13198.1 1343.5 13197.9 1339.09 13197.6C1251.34 13191.7 1183.16 13144.9 1183.16 13026.6C1183.16 12904.1 1346.24 12749.5 1358.49 12738L1358.51 12738C1358.98 12737.6 1359.22 12737.4 1359.22 12737.4C1359.22 12737.4 1535.28 12899.3 1535.28 13026.6Z" fill="#6C63FF"/>
<path d="M1352.8 13178.8L1417.2 13092.4L1352.64 13188.3L1352.47 13198.2C1347.96 13198.1 1343.5 13197.9 1339.09 13197.6L1346.03 13070.3L1345.98 13069.3L1346.1 13069.1L1346.75 13057.1L1282.04 12961L1346.96 13048.1L1347.11 13050.6L1352.35 12954.4L1296.95 12855.1L1353.03 12937.5L1358.49 12738L1358.51 12737.4V12738L1357.6 12895.3L1412.75 12833L1357.37 12908.9L1355.91 12995L1407.41 12912.3L1355.7 13007.7L1354.88 13055.6L1429.65 12940.5L1354.6 13072.3L1352.8 13178.8Z" fill="#3F3D56"/>
<path d="M2227.66 13079.6C2227.66 13218.3 2141.79 13266.7 2035.86 13266.7C2033.41 13266.7 2030.96 13266.7 2028.51 13266.6C2023.61 13266.5 2018.75 13266.3 2013.94 13266C1918.34 13259.5 1844.07 13208.6 1844.07 13079.6C1844.07 12946.2 2021.72 12777.8 2035.07 12765.3L2035.09 12765.3C2035.61 12764.8 2035.86 12764.6 2035.86 12764.6C2035.86 12764.6 2227.66 12941 2227.66 13079.6Z" fill="#6C63FF"/>
<path d="M2028.88 13245.5L2099.03 13151.4L2028.7 13255.8L2028.52 13266.6C2023.61 13266.5 2018.75 13266.3 2013.94 13266L2021.5 13127.3L2021.45 13126.2L2021.57 13126L2022.29 13112.9L1951.79 13008.2L2022.51 13103.1L2022.67 13105.9L2028.39 13001L1968.03 12892.9L2029.12 12982.6L2035.07 12765.3L2035.09 12764.6V12765.3L2034.1 12936.7L2094.19 12868.7L2033.86 12951.4L2032.27 13045.3L2088.37 12955.2L2032.03 13059.1L2031.14 13111.3L2112.59 12985.9L2030.84 13129.5L2028.88 13245.5Z" fill="#3F3D56"/>
<path d="M1917.95 13057.9C1925.65 13042.3 1889.98 13010.6 1838.29 12987.1C1786.59 12963.5 1738.45 12957.1 1730.75 12972.7C1723.05 12988.3 1758.72 13020 1810.41 13043.5C1862.11 13067 1910.25 13073.5 1917.95 13057.9Z" fill="#2F2E41"/>
<path d="M323.3 13039.7C329.983 13023.7 292.348 12994.2 239.241 12973.7C186.134 12953.3 137.665 12949.7 130.982 12965.7C124.3 12981.7 161.935 13011.2 215.042 13031.7C268.149 13052.1 316.618 13055.7 323.3 13039.7Z" fill="#2F2E41"/>
</g>
<path d="M3161.26 12998.2C3137.43 12998.2 3113.87 13002.7 3092.07 13011.3C3033.1 12927.1 2941.81 12873 2839.25 12873C2736.69 12873 2645.4 12927.1 2586.43 13011.3C2564.63 13002.7 2541.07 12998.2 2517.24 12998.2C2400.73 12998.2 2306.27 13104.6 2306.27 13236H3372.23C3372.23 13104.6 3277.78 12998.2 3161.26 12998.2Z" fill="#D0CDE1"/>
<path d="M9770.22 12835.4C9745.09 12835.9 9720.82 12843.7 9701.03 12857.6C9642.06 12715.8 9550.78 12624.6 9448.22 12624.6C9345.66 12624.6 9254.37 12715.8 9195.4 12857.6C9175.61 12843.7 9151.34 12835.9 9126.21 12835.4C9009.69 12835.4 8915.23 13014.8 8915.23 13236H9981.2C9981.2 13014.8 9886.74 12835.4 9770.22 12835.4Z" fill="#D0CDE1"/>
<path d="M18958.8 12835.4C18933.7 12835.9 18909.4 12843.7 18889.6 12857.6C18830.7 12715.8 18739.4 12624.6 18636.8 12624.6C18534.3 12624.6 18443 12715.8 18384 12857.6C18364.2 12843.7 18339.9 12835.9 18314.8 12835.4C18198.3 12835.4 18103.8 13014.8 18103.8 13236H19169.8C19169.8 13014.8 19075.4 12835.4 18958.8 12835.4Z" fill="#6C63FF"/>
<path d="M13296.3 8996.81L13262.5 9140.96L13220.1 9285.11L13084.7 10999.7L13550.3 11030.1L13761.9 9156.13L13728.1 9057.51L13296.3 8996.81Z" fill="#2F2E41"/>
<path d="M12898.4 10764.5L12703.7 11030.1C12703.7 11030.1 12161.9 11424.6 12551.3 11447.4C12940.8 11470.1 13084.7 11212.2 13084.7 11212.2C13084.7 11212.2 13220.1 11174.2 13237.1 11136.3C13254 11098.4 13203.2 10764.5 13203.2 10764.5H12898.4Z" fill="#2F2E41"/>
<path d="M13118.5 10969.4C13118.5 10969.4 12923.8 11409.4 12949.2 11485.3C12974.6 11561.2 13017 11561.2 13008.5 11629.4C13000 11697.7 12974.6 11857 13296.3 11864.6C13618 11872.2 13465.6 11485.3 13465.6 11485.3L13423.3 10969.4H13118.5Z" fill="#2F2E41"/>
<path d="M12525.9 7714.64C12525.9 7714.64 12407.4 7896.72 12424.3 8010.53C12441.3 8124.33 12686.8 9345.8 12686.8 9345.8L12881.5 10832.8L13313.3 10802.5L13144 9429.26L13186.3 8336.76L13262.5 9140.96L13762 9156.13L14058.3 8010.53C14058.3 8010.53 13838.2 7691.88 13795.8 7669.12C13753.5 7646.36 12525.9 7714.64 12525.9 7714.64Z" fill="#2F2E41"/>
<path d="M13114.3 5412.04C13315.4 5412.04 13478.4 5265.98 13478.4 5085.81C13478.4 4905.63 13315.4 4759.57 13114.3 4759.57C12913.3 4759.57 12750.3 4905.63 12750.3 5085.81C12750.3 5265.98 12913.3 5412.04 13114.3 5412.04Z" fill="#FFB8B8"/>
<path d="M13008.5 5294.44L13059.3 5726.88L13618 5651.02L13313.3 5142.7L13008.5 5294.44Z" fill="#FFB8B8"/>
<path d="M13575.7 5522.05C13575.7 5522.05 13287.9 5711.72 13008.5 5605.5L12585.2 6569.03V7775.33C12585.2 7775.33 13220.1 7942.24 13575.7 7744.99C13575.7 7744.99 13829.7 7699.47 13872 7707.05C13914.3 7714.64 13719.6 5651.03 13719.6 5651.03L13575.7 5522.05Z" fill="#D0CDE1"/>
<path d="M13313.3 5567.57L13508 5817.93C13545.8 5880.5 13557.8 5953.05 13541.8 6022.78C13516.4 6144.17 13491 7729.81 13728.1 7790.51C13965.1 7851.2 14117.5 7843.61 14117.5 7843.61C14117.5 7843.61 13905.9 6933.2 13982.1 6773.87L14219.1 5817.93L13592.6 5499.29C13592.6 5499.29 13553.5 5355.14 13488.4 5434.8C13440 5488.71 13380.6 5533.78 13313.3 5567.57Z" fill="#575A89"/>
<path d="M12746 6978.72L13035.2 5522.05L12746 5658.61C12746 5658.61 12415.9 5780 12348.1 5924.15C12280.4 6068.3 12009.5 6758.7 12009.5 6758.7C12009.5 6758.7 12077.2 7175.98 12331.2 7001.48C12585.2 6826.98 12525.9 6743.53 12525.9 6743.53C12525.9 6743.53 12305.8 7547.73 12339.7 7570.49C12373.5 7593.25 12390.5 7805.68 12390.5 7805.68L12652.9 7760.16L12746 6978.72Z" fill="#575A89"/>
<path d="M12415.9 6166.93L12525.9 6022.78C12525.9 6022.78 12774.8 5575.15 12955.1 5726.89C13135.5 5878.63 12619 6227.62 12619 6227.62L12415.9 6166.93Z" fill="#FFB8B8"/>
<path d="M13905.9 7737.41L13838.2 7815.28L14007.5 8010.52L14083.7 7873.95L13905.9 7737.41Z" fill="#FFB8B8"/>
<path d="M12968.4 4815.57C12931 4815.9 12898.3 4836.63 12867.7 4855.68C12837 4874.74 12802.2 4893.75 12765.1 4890C12747.8 4887.23 12731.5 4880.79 12717.5 4871.22C12703.5 4861.65 12692.3 4849.23 12684.7 4834.98C12670 4806.4 12660.4 4775.87 12656.5 4744.56L12698.8 4757.9L12664.5 4723.06L13028.2 4624.04C13138.2 4594.09 13262.6 4565.22 13363.4 4614.82C13415.5 4643.6 13457.6 4684.78 13485.2 4733.77C13542.5 4827.64 13571.7 4933.2 13570 5040.19C13568.3 5147.18 13535.7 5251.96 13475.5 5344.34C13419.7 5340.08 13383.4 5287.74 13374.3 5238.23C13365.3 5188.73 13374.1 5137.45 13362.9 5088.3C13351.7 5039.14 13309.9 4988.79 13253.9 4990.34L13224.5 5046.63C13243.3 5010.61 13131.4 4922.64 13104.7 4906.29C13081.2 4894.3 13059.4 4880.01 13039.4 4863.69C13016.3 4842.03 13010.5 4815.19 12968.4 4815.57Z" fill="#2F2E41"/>
<path d="M12449.7 6083.47L12652.9 6197.27L12449.7 6955.96C12449.7 6955.96 12128 7312.54 12009.5 6955.96C11910.3 6657.48 12285.6 6247.38 12410.6 6121.65C12434.9 6097.17 12449.7 6083.47 12449.7 6083.47Z" fill="#575A89"/>
<path d="M14024.4 5802.76H14219.1C14219.1 5802.76 14388.5 6098.65 14405.4 6257.97C14422.3 6417.29 14422.3 7047 14422.3 7047L14092.1 7927.07L13838.2 7760.16L14049.8 7236.67C14049.8 7236.67 14024.4 7122.87 14049.8 7069.76C14075.2 7016.65 13973.6 6743.53 13956.7 6728.35C13939.8 6713.18 14024.4 5802.76 14024.4 5802.76Z" fill="#575A89"/>
<path d="M9374.92 2489.04L11665.8 2489.04V2306.11L9374.92 2306.11V2489.04Z" fill="#3F3D56"/>
<path d="M9374.92 3162.96L11665.8 3162.96V2980.02L9374.92 2980.02V3162.96Z" fill="#3F3D56"/>
<path d="M9374.92 3766.68L11665.8 3766.68V3583.74L9374.92 3583.74V3766.68Z" fill="#3F3D56"/>
<path d="M5655.7 4159.89L6779.35 3133.88H8049.59V3095.67H6761.55L6755.28 3101.34L5625.36 4133.02L5655.7 4159.89Z" fill="#3F3D56"/>
<path d="M8654.24 2678.37C8792.68 2678.37 8904.91 2577.8 8904.91 2453.73C8904.91 2329.67 8792.68 2229.1 8654.24 2229.1C8515.8 2229.1 8403.57 2329.67 8403.57 2453.73C8403.57 2577.8 8515.8 2678.37 8654.24 2678.37Z" fill="#6C63FF"/>
<path d="M8654.24 3352.29C8792.68 3352.29 8904.91 3251.71 8904.91 3127.65C8904.91 3003.59 8792.68 2903.01 8654.24 2903.01C8515.8 2903.01 8403.57 3003.59 8403.57 3127.65C8403.57 3251.71 8515.8 3352.29 8654.24 3352.29Z" fill="#6C63FF"/>
<path d="M8654.24 3956C8792.68 3956 8904.91 3855.43 8904.91 3731.37C8904.91 3607.3 8792.68 3506.73 8654.24 3506.73C8515.8 3506.73 8403.57 3607.3 8403.57 3731.37C8403.57 3855.43 8515.8 3956 8654.24 3956Z" fill="#6C63FF"/>
<path d="M8513.25 2397.57C8513.25 2350.37 8528.87 2304.22 8558.14 2264.97C8587.4 2225.72 8629 2195.13 8677.67 2177.06C8726.33 2159 8779.88 2154.27 8831.55 2163.48C8883.21 2172.69 8930.67 2195.42 8967.92 2228.8C9005.17 2262.18 9030.53 2304.71 9040.81 2351.01C9051.09 2397.31 9045.81 2445.3 9025.65 2488.91C9005.5 2532.53 8971.36 2569.8 8927.56 2596.03C8883.76 2622.25 8832.27 2636.25 8779.59 2636.25C8708.98 2636.18 8641.28 2611.01 8591.35 2566.27C8541.41 2521.52 8513.33 2460.85 8513.25 2397.57ZM8544.58 2397.57C8544.58 2439.23 8558.37 2479.94 8584.19 2514.58C8610.01 2549.21 8646.71 2576.2 8689.66 2592.14C8732.6 2608.08 8779.85 2612.25 8825.44 2604.13C8871.02 2596 8912.9 2575.94 8945.76 2546.49C8978.63 2517.04 9001.01 2479.51 9010.08 2438.66C9019.15 2397.81 9014.49 2355.46 8996.7 2316.98C8978.92 2278.5 8948.8 2245.61 8910.15 2222.47C8871.5 2199.33 8826.07 2186.97 8779.59 2186.97C8717.28 2187.04 8657.55 2209.25 8613.49 2248.73C8569.44 2288.21 8544.65 2341.74 8544.58 2397.57Z" fill="#3F3D56"/>
<path d="M8513.25 3071.49C8513.25 3024.28 8528.87 2978.14 8558.14 2938.89C8587.4 2899.64 8629 2869.04 8677.67 2850.98C8726.33 2832.91 8779.88 2828.19 8831.55 2837.4C8883.21 2846.61 8930.67 2869.34 8967.92 2902.72C9005.17 2936.1 9030.53 2978.63 9040.81 3024.93C9051.09 3071.23 9045.81 3119.22 9025.65 3162.83C9005.5 3206.44 8971.36 3243.72 8927.56 3269.94C8883.76 3296.17 8832.27 3310.17 8779.59 3310.17C8708.98 3310.1 8641.28 3284.93 8591.35 3240.18C8541.41 3195.44 8513.33 3134.77 8513.25 3071.49ZM8544.58 3071.49C8544.58 3113.14 8558.37 3153.86 8584.19 3188.49C8610.01 3223.13 8646.71 3250.12 8689.66 3266.06C8732.6 3282 8779.85 3286.17 8825.44 3278.04C8871.02 3269.92 8912.9 3249.86 8945.76 3220.41C8978.63 3190.95 9001.01 3153.43 9010.08 3112.58C9019.15 3071.72 9014.49 3029.38 8996.7 2990.9C8978.92 2952.42 8948.8 2919.52 8910.15 2896.38C8871.5 2873.24 8826.07 2860.89 8779.59 2860.89C8717.28 2860.95 8657.55 2883.16 8613.49 2922.64C8569.44 2962.13 8544.65 3015.66 8544.58 3071.49Z" fill="#3F3D56"/>
<path d="M8513.25 3675.21C8513.25 3628 8528.87 3581.85 8558.14 3542.6C8587.4 3503.35 8629 3472.76 8677.67 3454.7C8726.33 3436.63 8779.88 3431.9 8831.55 3441.11C8883.21 3450.32 8930.67 3473.06 8967.92 3506.44C9005.17 3539.82 9030.53 3582.34 9040.81 3628.64C9051.09 3674.94 9045.81 3722.93 9025.65 3766.54C9005.5 3810.16 8971.36 3847.43 8927.56 3873.66C8883.76 3899.89 8832.27 3913.88 8779.59 3913.88C8708.98 3913.81 8641.28 3888.64 8591.35 3843.9C8541.41 3799.15 8513.33 3738.49 8513.25 3675.21ZM8544.58 3675.21C8544.58 3716.86 8558.37 3757.58 8584.19 3792.21C8610.01 3826.84 8646.71 3853.83 8689.66 3869.77C8732.6 3885.71 8779.85 3889.88 8825.44 3881.76C8871.02 3873.63 8912.9 3853.58 8945.76 3824.12C8978.63 3794.67 9001.01 3757.14 9010.08 3716.29C9019.15 3675.44 9014.49 3633.1 8996.7 3594.61C8978.92 3556.13 8948.8 3523.24 8910.15 3500.1C8871.5 3476.96 8826.07 3464.61 8779.59 3464.61C8717.28 3464.67 8657.55 3486.88 8613.49 3526.36C8569.44 3565.84 8544.65 3619.37 8544.58 3675.21Z" fill="#3F3D56"/>
<path d="M13724 147.21H11433.2V330.148H13724V147.21Z" fill="#3F3D56"/>
<path d="M13724 821.125H11433.2V1004.06H13724V821.125Z" fill="#3F3D56"/>
<path d="M13724 1424.84H11433.2V1607.78H13724V1424.84Z" fill="#3F3D56"/>
<path d="M17230.1 2192.04L16319.6 974.98H15049.4V936.77H16337.4L16343.7 942.444L17260.4 2165.18L17230.1 2192.04Z" fill="#3F3D56"/>
<path d="M14444.7 519.476C14583.2 519.476 14695.4 418.902 14695.4 294.838C14695.4 170.773 14583.2 70.1991 14444.7 70.1991C14306.3 70.1991 14194.1 170.773 14194.1 294.838C14194.1 418.902 14306.3 519.476 14444.7 519.476Z" fill="#6C63FF"/>
<path d="M14444.7 1193.39C14583.2 1193.39 14695.4 1092.82 14695.4 968.754C14695.4 844.69 14583.2 744.116 14444.7 744.116C14306.3 744.116 14194.1 844.69 14194.1 968.754C14194.1 1092.82 14306.3 1193.39 14444.7 1193.39Z" fill="#6C63FF"/>
<path d="M14444.7 1797.11C14583.2 1797.11 14695.4 1696.54 14695.4 1572.47C14695.4 1448.41 14583.2 1347.83 14444.7 1347.83C14306.3 1347.83 14194.1 1448.41 14194.1 1572.47C14194.1 1696.54 14306.3 1797.11 14444.7 1797.11Z" fill="#6C63FF"/>
<path d="M14319.4 477.357C14266.7 477.357 14215.2 463.359 14171.4 437.133C14127.6 410.906 14093.5 373.63 14073.3 330.017C14053.2 286.404 14047.9 238.414 14058.2 192.115C14068.5 145.816 14093.8 103.287 14131.1 69.9074C14168.3 36.5276 14215.8 13.7957 14267.4 4.58624C14319.1 -4.62323 14372.7 0.103443 14421.3 18.1685C14470 36.2335 14511.6 66.8255 14540.8 106.076C14570.1 145.326 14585.7 191.472 14585.7 238.679C14585.7 301.958 14557.6 362.626 14507.6 407.372C14457.7 452.117 14390 477.287 14319.4 477.357ZM14319.4 28.0798C14272.9 28.0798 14227.5 40.4313 14188.8 63.5722C14150.2 86.7131 14120.1 119.604 14102.3 158.086C14084.5 196.568 14079.8 238.912 14088.9 279.764C14098 320.617 14120.4 358.142 14153.2 387.594C14186.1 417.047 14228 437.105 14273.6 445.231C14319.1 453.357 14366.4 449.186 14409.3 433.247C14452.3 417.307 14489 390.314 14514.8 355.681C14540.6 321.048 14554.4 280.331 14554.4 238.679C14554.3 182.844 14529.5 129.314 14485.5 89.8326C14441.4 50.3514 14381.7 28.1431 14319.4 28.0798Z" fill="#3F3D56"/>
<path d="M14319.4 1151.27C14266.7 1151.27 14215.2 1137.27 14171.4 1111.05C14127.6 1084.82 14093.5 1047.54 14073.3 1003.93C14053.2 960.319 14047.9 912.329 14058.2 866.03C14068.5 819.731 14093.8 777.203 14131.1 743.823C14168.3 710.443 14215.8 687.711 14267.4 678.501C14319.1 669.292 14372.7 674.019 14421.3 692.084C14470 710.149 14511.6 740.741 14540.8 779.991C14570.1 819.242 14585.7 865.388 14585.7 912.594C14585.7 975.874 14557.6 1036.54 14507.6 1081.29C14457.7 1126.03 14390 1151.2 14319.4 1151.27ZM14319.4 701.995C14272.9 701.995 14227.5 714.347 14188.8 737.488C14150.2 760.629 14120.1 793.52 14102.3 832.002C14084.5 870.484 14079.8 912.828 14088.9 953.68C14098 994.532 14120.4 1032.06 14153.2 1061.51C14186.1 1090.96 14228 1111.02 14273.6 1119.15C14319.1 1127.27 14366.4 1123.1 14409.3 1107.16C14452.3 1091.22 14489 1064.23 14514.8 1029.6C14540.6 994.964 14554.4 954.247 14554.4 912.594C14554.3 856.759 14529.5 803.229 14485.5 763.748C14441.4 724.267 14381.7 702.059 14319.4 701.995Z" fill="#3F3D56"/>
<path d="M14319.4 1754.99C14266.7 1754.99 14215.2 1740.99 14171.4 1714.77C14127.6 1688.54 14093.5 1651.26 14073.3 1607.65C14053.2 1564.04 14047.9 1516.05 14058.2 1469.75C14068.5 1423.45 14093.8 1380.92 14131.1 1347.54C14168.3 1314.16 14215.8 1291.43 14267.4 1282.22C14319.1 1273.01 14372.7 1277.74 14421.3 1295.8C14470 1313.87 14511.6 1344.46 14540.8 1383.71C14570.1 1422.96 14585.7 1469.11 14585.7 1516.31C14585.7 1579.59 14557.6 1640.26 14507.6 1685C14457.7 1729.75 14390 1754.92 14319.4 1754.99ZM14319.4 1305.71C14272.9 1305.71 14227.5 1318.06 14188.8 1341.21C14150.2 1364.35 14120.1 1397.24 14102.3 1435.72C14084.5 1474.2 14079.8 1516.55 14088.9 1557.4C14098 1598.25 14120.4 1635.77 14153.2 1665.23C14186.1 1694.68 14228 1714.74 14273.6 1722.86C14319.1 1730.99 14366.4 1726.82 14409.3 1710.88C14452.3 1694.94 14489 1667.95 14514.8 1633.31C14540.6 1598.68 14554.4 1557.96 14554.4 1516.31C14554.3 1460.48 14529.5 1406.95 14485.5 1367.47C14441.4 1327.98 14381.7 1305.78 14319.4 1305.71Z" fill="#3F3D56"/>
<path d="M9687.94 7333.79H11287.9V7206.02H9687.94V7333.79Z" fill="#3F3D56"/>
<path d="M9687.94 7804.46H11287.9V7676.7H9687.94V7804.46Z" fill="#3F3D56"/>
<path d="M9687.94 8226.11H11287.9V8098.34H9687.94V8226.11Z" fill="#3F3D56"/>
<path d="M7090.37 8500.74L7875.15 7784.16H8762.33V7757.47H7862.73L7858.35 7761.42L7069.2 8481.98L7090.37 8500.74Z" fill="#3F3D56"/>
<path d="M9184.62 7466.02C9281.31 7466.02 9359.7 7395.78 9359.7 7309.13C9359.7 7222.48 9281.31 7152.24 9184.62 7152.24C9087.93 7152.24 9009.55 7222.48 9009.55 7309.13C9009.55 7395.78 9087.93 7466.02 9184.62 7466.02Z" fill="#6C63FF"/>
<path d="M9184.62 7936.69C9281.31 7936.69 9359.7 7866.45 9359.7 7779.8C9359.7 7693.15 9281.31 7622.91 9184.62 7622.91C9087.93 7622.91 9009.55 7693.15 9009.55 7779.8C9009.55 7866.45 9087.93 7936.69 9184.62 7936.69Z" fill="#6C63FF"/>
<path d="M9184.62 8358.34C9281.31 8358.34 9359.7 8288.1 9359.7 8201.45C9359.7 8114.8 9281.31 8044.56 9184.62 8044.56C9087.93 8044.56 9009.55 8114.8 9009.55 8201.45C9009.55 8288.1 9087.93 8358.34 9184.62 8358.34Z" fill="#6C63FF"/>
<path d="M9086.13 7269.91C9086.13 7236.94 9097.04 7204.71 9117.48 7177.29C9137.92 7149.88 9166.97 7128.51 9200.96 7115.9C9234.95 7103.28 9272.35 7099.98 9308.43 7106.41C9344.52 7112.84 9377.66 7128.72 9403.67 7152.03C9429.69 7175.34 9447.41 7205.05 9454.58 7237.38C9461.76 7269.72 9458.08 7303.24 9444 7333.7C9429.92 7364.16 9406.08 7390.19 9375.49 7408.51C9344.9 7426.83 9308.93 7436.6 9272.14 7436.6C9222.82 7436.55 9175.54 7418.97 9140.67 7387.72C9105.8 7356.47 9086.18 7314.1 9086.13 7269.91ZM9108.01 7269.91C9108.01 7299 9117.64 7327.43 9135.67 7351.62C9153.71 7375.81 9179.34 7394.66 9209.33 7405.79C9239.32 7416.93 9272.32 7419.84 9304.16 7414.17C9336 7408.49 9365.25 7394.48 9388.2 7373.91C9411.15 7353.34 9426.79 7327.13 9433.12 7298.6C9439.45 7270.07 9436.2 7240.49 9423.78 7213.62C9411.36 7186.74 9390.32 7163.77 9363.33 7147.61C9336.34 7131.45 9304.6 7122.82 9272.14 7122.82C9228.63 7122.86 9186.91 7138.37 9156.14 7165.95C9125.37 7193.52 9108.06 7230.91 9108.01 7269.91Z" fill="#3F3D56"/>
<path d="M9086.13 7740.58C9086.13 7707.61 9097.04 7675.38 9117.48 7647.97C9137.92 7620.55 9166.97 7599.19 9200.96 7586.57C9234.95 7573.95 9272.35 7570.65 9308.43 7577.08C9344.52 7583.52 9377.66 7599.39 9403.67 7622.71C9429.69 7646.02 9447.41 7675.72 9454.58 7708.06C9461.76 7740.39 9458.08 7773.91 9444 7804.37C9429.92 7834.83 9406.08 7860.87 9375.49 7879.18C9344.9 7897.5 9308.93 7907.28 9272.14 7907.28C9222.82 7907.23 9175.54 7889.65 9140.67 7858.4C9105.8 7827.15 9086.18 7784.78 9086.13 7740.58ZM9108.01 7740.58C9108.01 7769.67 9117.64 7798.11 9135.67 7822.3C9153.71 7846.48 9179.34 7865.34 9209.33 7876.47C9239.32 7887.6 9272.32 7890.52 9304.16 7884.84C9336 7879.16 9365.25 7865.16 9388.2 7844.59C9411.15 7824.02 9426.79 7797.81 9433.12 7769.27C9439.45 7740.74 9436.2 7711.17 9423.78 7684.29C9411.36 7657.42 9390.32 7634.44 9363.33 7618.28C9336.34 7602.12 9304.6 7593.49 9272.14 7593.49C9228.63 7593.54 9186.91 7609.05 9156.14 7636.62C9125.37 7664.2 9108.06 7701.58 9108.01 7740.58Z" fill="#3F3D56"/>
<path d="M9086.13 8162.23C9086.13 8129.26 9097.04 8097.03 9117.48 8069.61C9137.92 8042.2 9166.97 8020.84 9200.96 8008.22C9234.95 7995.6 9272.35 7992.3 9308.43 7998.73C9344.52 8005.16 9377.66 8021.04 9403.67 8044.35C9429.69 8067.67 9447.41 8097.37 9454.58 8129.71C9461.76 8162.04 9458.08 8195.56 9444 8226.02C9429.92 8256.48 9406.08 8282.51 9375.49 8300.83C9344.9 8319.15 9308.93 8328.92 9272.14 8328.92C9222.82 8328.87 9175.54 8311.3 9140.67 8280.05C9105.8 8248.79 9086.18 8206.42 9086.13 8162.23ZM9108.01 8162.23C9108.01 8191.32 9117.64 8219.76 9135.67 8243.94C9153.71 8268.13 9179.34 8286.98 9209.33 8298.12C9239.32 8309.25 9272.32 8312.16 9304.16 8306.49C9336 8300.81 9365.25 8286.8 9388.2 8266.23C9411.15 8245.66 9426.79 8219.45 9433.12 8190.92C9439.45 8162.39 9436.2 8132.82 9423.78 8105.94C9411.36 8079.06 9390.32 8056.09 9363.33 8039.93C9336.34 8023.77 9304.6 8015.14 9272.14 8015.14C9228.63 8015.18 9186.91 8030.7 9156.14 8058.27C9125.37 8085.85 9108.06 8123.23 9108.01 8162.23Z" fill="#3F3D56"/>
<g clip-path="url(#clip2)">
<path d="M17237.6 11583.4C17330.3 11583.4 17405.4 11511.3 17405.4 11422.3C17405.4 11333.3 17330.3 11261.2 17237.6 11261.2C17144.9 11261.2 17069.7 11333.3 17069.7 11422.3C17069.7 11511.3 17144.9 11583.4 17237.6 11583.4Z" fill="#FF6584"/>
<path d="M18054.2 12026.9C18054.2 12407.1 17818.8 12539.8 17528.3 12539.8C17237.9 12539.8 17002.4 12407.1 17002.4 12026.9C17002.4 11646.7 17528.3 11163 17528.3 11163C17528.3 11163 18054.2 11646.7 18054.2 12026.9Z" fill="#F2F2F2"/>
<path d="M17509.2 12481.7L17514.6 12163.5L17738.7 11769.8L17515.4 12113.5L17517.8 11970.5L17672.3 11685.7L17518.5 11932.6L17522.8 11675.3L17688.2 11448.6L17523.5 11634.8L17526.2 11163L17509.1 11787.6L17510.5 11761.9L17342.3 11514.7L17507.8 11811.3L17492.2 12098.7L17491.7 12091.1L17297.8 11831L17491.1 12118L17489.2 12154L17488.8 12154.5L17489 12157.5L17449.2 12886.6H17502.3L17508.7 12510L17701.5 12223.7L17509.2 12481.7Z" fill="#3F3D56"/>
<path d="M19619 12182.6C19619 12493.8 19426.2 12602.5 19188.5 12602.5C18950.7 12602.5 18758 12493.8 18758 12182.6C18758 11871.4 19188.5 11475.5 19188.5 11475.5C19188.5 11475.5 19619 11871.4 19619 12182.6Z" fill="#F2F2F2"/>
<path d="M19172.8 12554.8L19177.2 12294.4L19360.7 11972.2L19177.9 12253.5L19179.9 12136.4L19306.3 11903.3L19180.4 12105.4L19184 11894.8L19319.4 11709.2L19184.5 11861.7L19186.8 11475.5L19172.8 11986.7L19173.9 11965.7L19036.2 11763.4L19171.7 12006.1L19158.9 12241.4L19158.5 12235.1L18999.8 12022.3L19158 12257.2L19156.4 12286.6L19156.1 12287.1L19156.3 12289.5L19123.7 12886.3H19167.2L19172.4 12578L19330.2 12343.7L19172.8 12554.8Z" fill="#3F3D56"/>
<path d="M18134.5 12946.8C18937.8 12946.8 19589 12915.2 19589 12876.2C19589 12837.2 18937.8 12805.6 18134.5 12805.6C17331.2 12805.6 16680 12837.2 16680 12876.2C16680 12915.2 17331.2 12946.8 18134.5 12946.8Z" fill="#3F3D56"/>
<path d="M19020.6 13004.9C19158.2 13004.9 19269.7 12999.5 19269.7 12992.8C19269.7 12986.2 19158.2 12980.7 19020.6 12980.7C18883 12980.7 18771.5 12986.2 18771.5 12992.8C18771.5 12999.5 18883 13004.9 19020.6 13004.9Z" fill="#3F3D56"/>
<path d="M18119.1 13121.5C18256.7 13121.5 18368.2 13116.1 18368.2 13109.4C18368.2 13102.8 18256.7 13097.4 18119.1 13097.4C17981.5 13097.4 17870 13102.8 17870 13109.4C17870 13116.1 17981.5 13121.5 18119.1 13121.5Z" fill="#3F3D56"/>
<path d="M17435.2 13039.3C17749.5 13039.3 18004.3 13026.9 18004.3 13011.7C18004.3 12996.4 17749.5 12984 17435.2 12984C17120.8 12984 16866 12996.4 16866 13011.7C16866 13026.9 17120.8 13039.3 17435.2 13039.3Z" fill="#3F3D56"/>
<path d="M16934.6 12787.6C17049 12787.6 17141.8 12698.5 17141.8 12588.7C17141.8 12478.8 17049 12389.8 16934.6 12389.8C16820.2 12389.8 16727.4 12478.8 16727.4 12588.7C16727.4 12698.5 16820.2 12787.6 16934.6 12787.6Z" fill="#2F2E41"/>
<path d="M16901.2 12744.4L16838.3 12743.7L16837 12851.9L16899.9 12852.7L16901.2 12744.4Z" fill="#2F2E41"/>
<path d="M17027.1 12745.8L16964.2 12745.1L16962.8 12853.4L17025.8 12854.1L17027.1 12745.8Z" fill="#2F2E41"/>
<path d="M16941.8 12854.4C16942 12844 16918.6 12835.2 16889.6 12834.9C16860.7 12834.6 16837.1 12842.8 16836.9 12853.2C16836.8 12863.6 16860.2 12872.3 16889.2 12872.7C16918.1 12873 16941.7 12864.8 16941.8 12854.4Z" fill="#2F2E41"/>
<path d="M17067.8 12853.3C17067.9 12842.9 17044.5 12834.1 17015.5 12833.8C16986.6 12833.5 16963 12841.7 16962.9 12852.1C16962.7 12862.5 16986.1 12871.3 17015.1 12871.6C17044 12871.9 17067.6 12863.7 17067.8 12853.3Z" fill="#2F2E41"/>
<path d="M16940.5 12606.4C16979.6 12606.4 17011.3 12575.9 17011.3 12538.4C17011.3 12500.8 16979.6 12470.4 16940.5 12470.4C16901.4 12470.4 16869.7 12500.8 16869.7 12538.4C16869.7 12575.9 16901.4 12606.4 16940.5 12606.4Z" fill="white"/>
<path d="M16940.5 12561C16953.5 12561 16964.1 12550.9 16964.1 12538.4C16964.1 12525.9 16953.5 12515.7 16940.5 12515.7C16927.4 12515.7 16916.9 12525.9 16916.9 12538.4C16916.9 12550.9 16927.4 12561 16940.5 12561Z" fill="#3F3D56"/>
<path d="M16735.9 12401.4C16720.1 12329.3 16774.4 12257.3 16857.4 12240.5C16940.3 12223.7 17020.3 12268.5 17036.2 12340.6C17052 12412.8 16996.9 12438.7 16914 12455.4C16831.1 12472.2 16751.8 12473.6 16735.9 12401.4Z" fill="#6C63FF"/>
<path d="M17250.7 12699.6C17250.7 12838.3 17164.8 12886.7 17058.9 12886.7C17056.4 12886.7 17054 12886.7 17051.5 12886.6C17046.6 12886.5 17041.8 12886.3 17037 12886C16941.4 12879.5 16867.1 12828.6 16867.1 12699.6C16867.1 12566.2 17044.7 12397.8 17058.1 12385.3L17058.1 12385.3C17058.6 12384.8 17058.9 12384.6 17058.9 12384.6C17058.9 12384.6 17250.7 12561 17250.7 12699.6Z" fill="#6C63FF"/>
<path d="M17051.9 12865.5L17122 12771.4L17051.7 12875.8L17051.5 12886.6C17046.6 12886.5 17041.8 12886.3 17037 12886L17044.5 12747.3L17044.5 12746.2L17044.6 12746L17045.3 12732.9L16974.8 12628.2L17045.5 12723.1L17045.7 12725.8L17051.4 12621L16991 12512.8L17052.1 12602.6L17058.1 12385.3L17058.1 12384.6V12385.3L17057.1 12556.7L17117.2 12488.7L17056.9 12571.4L17055.3 12665.3L17111.4 12575.2L17055 12679.1L17054.2 12731.2L17135.6 12605.9L17053.9 12749.5L17051.9 12865.5Z" fill="#3F3D56"/>
<path d="M18548.6 12785.4C18663 12785.4 18755.8 12696.4 18755.8 12586.5C18755.8 12476.7 18663 12387.6 18548.6 12387.6C18434.2 12387.6 18341.4 12476.7 18341.4 12586.5C18341.4 12696.4 18434.2 12785.4 18548.6 12785.4Z" fill="#2F2E41"/>
<path d="M18566.3 12744.6L18506.1 12762.4L18539.3 12865.8L18599.4 12848.1L18566.3 12744.6Z" fill="#2F2E41"/>
<path d="M18686.6 12709.1L18626.5 12726.9L18659.6 12830.4L18719.8 12812.6L18686.6 12709.1Z" fill="#2F2E41"/>
<path d="M18595.6 12870.3C18623.3 12862.1 18643.1 12847.4 18639.9 12837.5C18636.7 12827.5 18611.7 12826 18584 12834.2C18556.3 12842.4 18536.5 12857.1 18539.6 12867C18542.8 12877 18567.9 12878.5 18595.6 12870.3Z" fill="#2F2E41"/>
<path d="M18715.1 12832.4C18742.8 12824.2 18762.7 12809.5 18759.5 12799.6C18756.3 12789.6 18731.3 12788.1 18703.6 12796.3C18675.9 12804.5 18656 12819.2 18659.2 12829.1C18662.4 12839.1 18687.4 12840.6 18715.1 12832.4Z" fill="#2F2E41"/>
<path d="M18538.2 12604.9C18577.3 12604.9 18609 12574.5 18609 12536.9C18609 12499.4 18577.3 12468.9 18538.2 12468.9C18499.1 12468.9 18467.4 12499.4 18467.4 12536.9C18467.4 12574.5 18499.1 12604.9 18538.2 12604.9Z" fill="white"/>
<path d="M18538.2 12559.6C18551.3 12559.6 18561.8 12549.4 18561.8 12536.9C18561.8 12524.4 18551.3 12514.3 18538.2 12514.3C18525.2 12514.3 18514.6 12524.4 18514.6 12536.9C18514.6 12549.4 18525.2 12559.6 18538.2 12559.6Z" fill="#3F3D56"/>
<path d="M18299.9 12466.4C18261.9 12402.4 18290.8 12317.8 18364.4 12277.5C18438 12237.3 18528.5 12256.6 18566.5 12320.6C18604.5 12384.6 18560.2 12425.4 18486.6 12465.7C18413 12506 18337.9 12530.4 18299.9 12466.4Z" fill="#6C63FF"/>
<path d="M18179.1 12674.2C18179.1 12801.5 18100.3 12846 18003 12846C18000.8 12846 17998.5 12845.9 17996.3 12845.9C17991.8 12845.8 17987.3 12845.6 17982.9 12845.3C17895.2 12839.4 17827 12792.6 17827 12674.2C17827 12551.7 17990.1 12397.2 18002.3 12385.7L18002.3 12385.7C18002.8 12385.2 18003 12385 18003 12385C18003 12385 18179.1 12547 18179.1 12674.2Z" fill="#6C63FF"/>
<path d="M17996.6 12826.5L18061 12740.1L17996.5 12836L17996.3 12845.9C17991.8 12845.8 17987.3 12845.6 17982.9 12845.3L17989.9 12718L17989.8 12717L17989.9 12716.8L17990.6 12704.8L17925.9 12608.7L17990.8 12695.7L17990.9 12698.3L17996.2 12602.1L17940.8 12502.8L17996.9 12585.2L18002.3 12385.7L18002.3 12385V12385.7L18001.4 12543L18056.6 12480.6L18001.2 12556.5L17999.7 12642.7L18051.2 12560L17999.5 12655.4L17998.7 12703.3L18073.5 12588.2L17998.4 12720L17996.6 12826.5Z" fill="#3F3D56"/>
<path d="M18871.5 12727.3C18871.5 12866 18785.6 12914.4 18679.7 12914.4C18677.2 12914.4 18674.8 12914.4 18672.3 12914.3C18667.4 12914.2 18662.6 12914 18657.8 12913.7C18562.2 12907.2 18487.9 12856.3 18487.9 12727.3C18487.9 12593.9 18665.6 12425.5 18678.9 12413L18678.9 12413C18679.4 12412.5 18679.7 12412.3 18679.7 12412.3C18679.7 12412.3 18871.5 12588.7 18871.5 12727.3Z" fill="#6C63FF"/>
<path d="M18672.7 12893.2L18742.9 12799.1L18672.5 12903.5L18672.3 12914.3C18667.4 12914.2 18662.6 12914 18657.8 12913.7L18665.3 12775L18665.3 12773.9L18665.4 12773.7L18666.1 12760.6L18595.6 12655.9L18666.3 12750.8L18666.5 12753.5L18672.2 12648.7L18611.9 12540.5L18672.9 12630.3L18678.9 12413L18678.9 12412.3V12413L18677.9 12584.3L18738 12516.4L18677.7 12599.1L18676.1 12693L18732.2 12602.9L18675.9 12706.8L18675 12758.9L18756.4 12633.6L18674.7 12777.1L18672.7 12893.2Z" fill="#3F3D56"/>
<path d="M18561.8 12705.6C18569.5 12690 18533.8 12658.3 18482.1 12634.8C18430.4 12611.2 18382.3 12604.8 18374.6 12620.4C18366.9 12635.9 18402.5 12667.6 18454.2 12691.2C18505.9 12714.7 18554.1 12721.2 18561.8 12705.6Z" fill="#2F2E41"/>
<path d="M16967.1 12687.4C16973.8 12671.4 16936.2 12641.8 16883.1 12621.4C16830 12601 16781.5 12597.4 16774.8 12613.4C16768.1 12629.4 16805.8 12658.9 16858.9 12679.4C16912 12699.8 16960.4 12703.4 16967.1 12687.4Z" fill="#2F2E41"/>
</g>
<path d="M3053.81 11128.1L4082.42 9713.01L3055.91 11280.3L3058.06 11439.6C2982.97 11440.1 2908.6 11438.9 2834.97 11436.1L2885.99 9389.26L2884.59 9373.47L2886.47 9370.42L2891.35 9177L1764.9 7664.02L2890.03 9032.25L2894.02 9073.13L2932.55 7526.67L1959.6 5958.04L2935.32 7255L2925.14 4051.13L2925.16 4040.46L2925.49 4050.95L2990.08 6576.03L3876.8 5550.34L2992.98 6793.56L3012.33 8176.83L3828.3 6826.81L3015.33 8380.2L3026.11 9149.37L4212.75 7268.8L3029.71 9417.7L3053.81 11128.1Z" fill="#3F3D56"/>
<path d="M3558.37 10469.4L3544.67 10451.4L3547.06 10449.6L3558.85 10465.1L3579.56 10447.6L3600.43 10465.2L3618.47 10447.5L3637.48 10466.2L3635.36 10468.3L3618.47 10451.7L3600.59 10469.2L3579.56 10451.5L3558.37 10469.4Z" fill="#575A89"/>
<path d="M3555.41 10492.6L3541.83 10474.8L3543.92 10473.3L3555.83 10488.9L3576.57 10471.4L3597.45 10489L3615.47 10471.3L3634.35 10489.8L3632.51 10491.7L3615.47 10474.9L3597.59 10492.5L3576.57 10474.8L3555.41 10492.6Z" fill="#575A89"/>
<path d="M3590.03 10387.8H3587.04V10423.1H3590.03V10387.8Z" fill="#575A89"/>
<path d="M1993.66 7559.99C2020.11 7559.99 2041.55 7538.93 2041.55 7512.95C2041.55 7486.96 2020.11 7465.9 1993.66 7465.9C1967.22 7465.9 1945.78 7486.96 1945.78 7512.95C1945.78 7538.93 1967.22 7559.99 1993.66 7559.99Z" fill="#FF6584"/>
<path d="M2095.41 7740.54L2081.71 7722.56L2084.11 7720.79L2095.89 7736.26L2116.6 7718.82L2137.47 7736.4L2155.51 7718.68L2174.52 7737.36L2172.41 7739.44L2155.51 7722.84L2137.63 7740.4L2116.6 7722.69L2095.41 7740.54Z" fill="#575A89"/>
<path d="M4018.59 6545.63L4005.01 6527.82L4007.1 6526.28L4019.01 6541.91L4039.75 6524.44L4060.63 6542.03L4078.65 6524.32L4097.54 6542.87L4095.69 6544.68L4078.65 6527.94L4060.77 6545.52L4039.75 6527.82L4018.59 6545.63Z" fill="#575A89"/>
<path d="M4053.22 6440.86H4050.23V6476.14H4053.22V6440.86Z" fill="#575A89"/>
<path d="M18196.8 6840.47C18223.2 6840.47 18244.7 6819.41 18244.7 6793.43C18244.7 6767.44 18223.2 6746.38 18196.8 6746.38C18170.3 6746.38 18148.9 6767.44 18148.9 6793.43C18148.9 6819.41 18170.3 6840.47 18196.8 6840.47Z" fill="#FF6584"/>
<path d="M3653.46 6922.29L3639.75 6904.31L3642.15 6902.54L3653.94 6918.01L3674.65 6900.57L3695.51 6918.15L3713.55 6900.43L3732.56 6919.11L3730.45 6921.19L3713.55 6904.59L3695.67 6922.15L3674.65 6904.44L3653.46 6922.29Z" fill="#575A89"/>
<path d="M3653.46 6922.29L3639.75 6904.31L3642.15 6902.54L3653.94 6918.01L3674.65 6900.57L3695.51 6918.15L3713.55 6900.43L3732.56 6919.11L3730.45 6921.19L3713.55 6904.59L3695.67 6922.15L3674.65 6904.44L3653.46 6922.29Z" fill="#575A89"/>
<path d="M3097.53 10507.3L3083.95 10489.5L3086.04 10488L3097.95 10503.6L3118.69 10486.1L3139.57 10503.7L3157.59 10486L3176.47 10504.5L3174.63 10506.4L3157.59 10489.6L3139.71 10507.2L3118.69 10489.5L3097.53 10507.3Z" fill="#575A89"/>
<path d="M3132.15 10402.5H3129.16V10437.8H3132.15V10402.5Z" fill="#575A89"/>
<path d="M3344.98 5557.08L3304.2 5527.01L3262.49 5555.83L3279 5508.43L3238.21 5478.36L3289.19 5479.13L3305.7 5431.74L3320.7 5479.61L3371.68 5480.39L3329.97 5509.2L3344.98 5557.08Z" fill="#6C63FF"/>
<path d="M16971.3 10657.4L17999.9 9242.28L16973.4 10809.6L16975.6 10968.8C16900.5 10969.4 16826.1 10968.2 16752.5 10965.4L16803.5 8918.53L16802.1 8902.74L16804 8899.69L16808.9 8706.28L15682.4 7193.29L16807.6 8561.52L16811.5 8602.4L16850.1 7055.94L15877.1 5487.32L16852.8 6784.27L16842.7 3580.4L16842.7 3569.74L16843 3580.23L16907.6 6105.31L17794.3 5079.62L16910.5 6322.84L16929.9 7706.11L17745.8 6356.09L16932.9 7909.48L16943.6 8678.65L18130.3 6798.08L16947.2 8946.98L16971.3 10657.4Z" fill="#3F3D56"/>
<path d="M3653.46 6922.29L3639.75 6904.31L3642.15 6902.54L3653.94 6918.01L3674.65 6900.57L3695.51 6918.15L3713.55 6900.43L3732.56 6919.11L3730.45 6921.19L3713.55 6904.59L3695.67 6922.15L3674.65 6904.44L3653.46 6922.29Z" fill="#575A89"/>
<path d="M2127.57 6050.02C2140.8 6050.02 2151.52 6039.49 2151.52 6026.5C2151.52 6013.51 2140.8 6002.97 2127.57 6002.97C2114.35 6002.97 2103.63 6013.51 2103.63 6026.5C2103.63 6039.49 2114.35 6050.02 2127.57 6050.02Z" fill="#D0CDE1"/>
<path d="M15953 7150.7C15966.2 7150.7 15977 7140.17 15977 7127.18C15977 7114.18 15966.2 7103.65 15953 7103.65C15939.8 7103.65 15929.1 7114.18 15929.1 7127.18C15929.1 7140.17 15939.8 7150.7 15953 7150.7Z" fill="#D0CDE1"/>
<path d="M2941.89 4087.78C2968.33 4087.78 2989.77 4066.72 2989.77 4040.74C2989.77 4014.75 2968.33 3993.69 2941.89 3993.69C2915.44 3993.69 2894 4014.75 2894 4040.74C2894 4066.72 2915.44 4087.78 2941.89 4087.78Z" fill="#FF6584"/>
<path d="M16937.2 3860.88C16963.7 3860.88 16985.1 3839.82 16985.1 3813.83C16985.1 3787.85 16963.7 3766.79 16937.2 3766.79C16910.8 3766.79 16889.4 3787.85 16889.4 3813.83C16889.4 3839.82 16910.8 3860.88 16937.2 3860.88Z" fill="#FF6584"/>
<path d="M17761.3 5241.6L17720.5 5211.54L17678.8 5240.35L17695.3 5192.95L17654.5 5162.89L17705.5 5163.66L17722 5116.26L17737 5164.14L17788 5164.91L17746.3 5193.73L17761.3 5241.6Z" fill="#6C63FF"/>
</g>
<defs>
<clipPath id="clip0">
<rect width="21568" height="13236" fill="white"/>
</clipPath>
<clipPath id="clip1">
<rect width="2938.95" height="1958.53" fill="white" transform="translate(36.1758 11515.3)"/>
</clipPath>
<clipPath id="clip2">
<rect width="2938.95" height="1958.53" fill="white" transform="translate(16680 11163)"/>
</clipPath>
</defs>
</svg>
